<?xml version="1.0" encoding="UTF-8"?>
<svg id="Layer_1" data-name="Layer 1" xmlns="http://www.w3.org/2000/svg" viewBox="0 0 683.63 603.95">
  <defs>
    <style>
      .cls-1 {
        fill: #2b337f;
      }

      .cls-2 {
        fill: #fff;
      }

      .cls-3 {
        fill: #ffc836;
      }

      .cls-4 {
        fill: #2c347f;
      }

      .cls-5 {
        fill: #fefdfc;
      }
    </style>
  </defs>
  <path class="cls-2" d="M677.69,279.77L528.98,22.2c-7.93-13.74-22.59-22.2-38.45-22.2H193.11c-15.86,0-30.52,8.46-38.45,22.2L5.95,279.77c-7.93,13.74-7.93,30.66,0,44.4l78.79,136.47,69.92,121.1c7.93,13.74,22.59,22.2,38.45,22.2h297.42c15.86,0,30.52-8.46,38.45-22.2l69.92-121.1,78.79-136.47c7.93-13.74,7.93-30.66,0-44.4h0Z"/>
  <path class="cls-2" d="M577.83,582.69c0-2.94.56-5.7,1.67-8.28,1.12-2.58,2.63-4.83,4.55-6.75s4.17-3.43,6.75-4.55,5.34-1.67,8.28-1.67,5.7.56,8.28,1.67c2.58,1.12,4.83,2.63,6.75,4.55s3.44,4.17,4.55,6.75c1.12,2.58,1.67,5.34,1.67,8.28s-.56,5.7-1.67,8.28c-1.12,2.58-2.63,4.84-4.55,6.75-1.92,1.92-4.17,3.43-6.75,4.55s-5.34,1.67-8.28,1.67-5.7-.56-8.28-1.67c-2.58-1.12-4.83-2.63-6.75-4.55s-3.44-4.17-4.55-6.75c-1.12-2.58-1.67-5.34-1.67-8.28ZM616.11,582.69c0-2.39-.45-4.64-1.35-6.75-.9-2.11-2.11-3.95-3.64-5.52s-3.33-2.81-5.4-3.73c-2.08-.92-4.29-1.38-6.63-1.38s-4.56.46-6.64,1.38-3.87,2.16-5.4,3.73-2.74,3.41-3.64,5.52c-.9,2.11-1.35,4.37-1.35,6.75s.45,4.64,1.35,6.75c.9,2.11,2.11,3.95,3.64,5.52s3.33,2.81,5.4,3.73,4.29,1.38,6.64,1.38,4.56-.46,6.63-1.38,3.87-2.16,5.4-3.73c1.53-1.56,2.74-3.41,3.64-5.52.9-2.11,1.35-4.36,1.35-6.75ZM591.04,595.08v-24.78h9.39c5.68,0,8.51,2.33,8.51,6.99,0,1.17-.17,2.17-.5,3-.33.82-.79,1.51-1.38,2.05-.59.55-1.26.97-2.03,1.26-.76.29-1.58.5-2.44.62l7.1,10.86h-4.7l-7.1-10.74h-2.99v10.74h-3.88.02ZM594.92,573.83v6.99h4.4c1.92,0,3.36-.28,4.32-.85.96-.57,1.44-1.52,1.44-2.85,0-1.14-.42-1.97-1.26-2.49-.84-.53-1.93-.79-3.26-.79h-5.64Z"/>
  <path class="cls-3" d="M677.69,279.77l-57.63-99.82h-25.3v243.21h25.77l57.16-99c7.93-13.74,7.93-30.66,0-44.4h0Z"/>
  <path class="cls-3" d="M63.58,179.96h0L5.95,279.77c-7.93,13.74-7.93,30.66,0,44.4l25.95,44.94,31.21,54.05h24.55v-243.2h-24.08Z"/>
  <path class="cls-3" d="M528.98,22.2c-7.93-13.74-22.59-22.2-38.45-22.2H193.11c-15.86,0-30.52,8.46-38.45,22.2l-69.42,120.24h513.16l-69.42-120.24h0Z"/>
  <path class="cls-3" d="M598.9,460.65H84.74l69.92,121.1c7.93,13.74,22.59,22.2,38.45,22.2h297.42c15.86,0,30.52-8.46,38.45-22.2l69.92-121.1h0Z"/>
  <path class="cls-1" d="M222,389.47l.1-57.33-17.97-.7-.07-29.55h63.06s.38,85.43.38,85.43c.08,17.33-8.5,31.11-25.14,37.62-27.8,12.13-93.11,7.65-93.14-32.6l-.1-180.08c-.02-41.11,58.85-46.08,91.98-34.62,16.24,5.62,26.39,19.32,26.36,36.18l-.11,54.02-45.11.02-.24-53.73c-.04-8.37-5.98-12.38-13.64-12.35s-14.06,4.08-14.06,12.9l.05,174.72c0,8.3,7.04,11.7,14,11.7,6.82,0,13.63-3.02,13.64-11.64Z"/>
  <path class="cls-4" d="M484.52,401.15c8.76.22,14.23-4.39,14.25-12.51l.11-56.67h45.28s-.04,58.67-.04,58.67c-.03,41.43-60.13,46.53-93.07,34.28-14.73-5.48-25.1-18.22-25.11-34.23l-.08-176.67c0-16.25,8.8-29.54,24.11-35.51,22.25-8.68,48.12-8.64,70.33.13,15.19,5.99,23.94,19.42,23.91,35.24l-.1,54-45.26-.18-.09-53.4c-.01-8.17-5.6-12.48-13.4-12.47s-14.16,3.75-14.16,12.52v174.18c0,8.02,5.16,12.41,13.31,12.61Z"/>
  <g>
    <path class="cls-1" d="M407.88,286.71c-.71,22.74-16.6,39.61-38.16,42.49-11.35,1.51-22.02,1.36-34.39,1.65l-.22,95.08-45.16-.06v-248.56s58.19-.01,58.19-.01c26.16,0,58.89,9.78,59.78,41.84.63,22.46.67,44.33-.05,67.57ZM363.11,288.19l-.26-64.11c-.02-4.59-3.12-12.37-6.92-14.39-6.56-3.48-14.41-3.52-20.73-1.92l.1,92.85c10.6-.04,27.86,1.37,27.81-12.43Z"/>
    <path class="cls-5" d="M363.11,288.19c.06,13.81-17.2,12.39-27.81,12.43l-.1-92.85c6.32-1.6,14.17-1.57,20.73,1.92,3.79,2.01,6.9,9.8,6.92,14.39l.26,64.11Z"/>
  </g>
</svg>