<?xml version="1.0" encoding="UTF-8"?>
<svg id="Layer_1" data-name="Layer 1" xmlns="http://www.w3.org/2000/svg" viewBox="0 0 677.78 119.47">
  <defs>
    <style>
      .cls-1 {
        fill: #ee1929;
      }

      .cls-2 {
        fill: #fff;
      }
    </style>
  </defs>
  <g id="WNCewr">
    <g>
      <polygon class="cls-1" points="51.8 97.24 .01 97.37 0 13.56 97.74 13.6 51.8 97.24"/>
      <polygon class="cls-1" points="103.6 97.31 59.71 97.26 105.74 13.57 149.44 13.65 103.6 97.31"/>
      <polygon class="cls-1" points="141.91 97.22 111.41 97.32 157.45 13.6 187.92 13.66 141.91 97.22"/>
      <polygon class="cls-1" points="170.02 97.24 149.86 97.17 195.81 13.62 216.17 13.7 170.02 97.24"/>
      <polygon class="cls-1" points="191.61 97.15 177.96 97.26 223.85 13.76 237.46 13.75 191.61 97.15"/>
      <path class="cls-1" d="M209.71,96.86c-3.49.63-6.81.58-10.28.24L245.27,13.78c3.43-.21,6.44-.2,10.15.09l-45.71,82.98Z"/>
    </g>
  </g>
  <path class="cls-2" d="M453.76,96.79l33.2-60.98c.95-1.74-.53-4.52-2.02-4.96-1.92-.57-3.51.39-4.62,2.42l-46.89,86.19-33.76-.12,50.93-93.52-7.61-11.89,60.25.1c5.3,0,9.72,2.89,12.11,6.54,3.12,4.76,3.34,10.27.63,15.22l-27.97,51.18c-3.71,6.78-11.33,10.14-18.49,10.04l-15.78-.22Z"/>
  <path class="cls-2" d="M340.97,97.24l-41.91.14c-1.53,0-4.04-2.59-3.08-4.39l15.07-28.23c.91-1.71.38-4.4-1.13-5.19-1.99-1.05-4.62-.34-5.68,1.76l-19.49,35.67h-37.61s45.5-83.08,45.5-83.08L283.95.02,354.59,0c9.02,0,17.54,9.83,13.87,18.46-4.32,10.17-10.22,19-15.18,28.81-1.38,2.74-5.12,3.18-7.98,3.47,1.25,1.22,3.31,4.83,2.26,6.81l-14.33,27.06,7.74,12.63ZM324.87,39.6l9.64-17.48c1.12-2.03.48-4.85-1.56-5.74-1.84-.8-4.43.03-5.4,1.82l-11.63,21.46,8.95-.06Z"/>
  <path class="cls-2" d="M390.86,67.52l28.81-.06-12.89,23.98c-1.82,3.39-5.94,5.87-9.82,5.84l-40.41-.28c-7.92-.05-17.02-9.75-12.87-17.5l30.77-57.48c2.68-5.01,7.6-8.02,13.3-8.04l35.39-.08c5.54-.01,10.28,2.95,12.73,6.84,3.05,4.86,3.73,10.7.98,15.76l-13.61,25.08h-37.25s-7.11,13-7.11,13c-.55,1.01.6,4.23,1.69,4.58s3.02-.36,4.36-1.15l5.93-10.51ZM403.99,43.1l4.92-9.02c.86-1.57-.23-4.4-1.69-4.87-1.38-.44-4,.24-4.62,1.39l-6.95,12.74c2.61.51,6.45.74,8.34-.25Z"/>
  <path class="cls-2" d="M628.72,97l-32.09-.18c-5.71-.03-11.2-3.8-13.46-7.8-2.82-5-3.64-11.41-.86-16.49l26.16-47.86c3.03-5.53,7.61-10.53,14.55-10.54l42.96-.07c3.77,0,7.51,2.6,9.13,4.94,2.15,3.13,3.7,7.68,1.81,11.16l-30.6,56.35c-3.46,6.38-9.97,10.51-17.61,10.47ZM619.24,79.09l24.79-45.57c1.2-2.21-.75-5.89-2.46-6.36-1.99-.56-4.92.11-6.06,2.2l-24.99,45.98c-1.34,2.46.79,5.64,2.94,6.34,1.81.59,4.46-.17,5.78-2.59Z"/>
  <path class="cls-2" d="M542.69,78.78l10.73-19.41,28.58-.16-14.61,27.08c-3.69,6.84-10.78,10.67-18.53,10.72h-28.6c-5.34-.01-10.58-2.17-14.46-5.6-4.82-4.25-5.99-10.92-2.92-16.71l28.03-52.85c2.27-4.29,7.27-7.72,12.03-7.72l43.56-.04c4.5,0,8.22,3.26,10.78,6.55,1.62,3.23,1.96,6.83.22,10.09l-10.79,20.17-28.89-.04,8.9-16.55c1.21-2.25.26-5.17-1.65-6.58-1.69-1.25-5.78-1.19-7.19,1.41l-25.15,46.39c-1.31,2.42,1.36,5.31,3.01,5.84,2.34.75,5.67.3,6.96-2.58Z"/>
</svg>